
<svg version="1.0" xmlns="http://www.w3.org/2000/svg"
 width="466.000000pt" height="440.000000pt" viewBox="0 0 466.000000 440.000000"
 preserveAspectRatio="xMidYMid meet">

<g transform="translate(0.000000,440.000000) scale(0.100000,-0.100000)"
fill="#000000" stroke="none">
<path d="M1 3563 c1 -711 3 -824 14 -743 27 212 80 375 172 535 l52 91 0 131
c0 114 4 173 26 333 13 91 49 248 83 366 39 129 113 145 287 60 132 -65 261
-155 372 -260 l42 -39 78 19 c43 10 80 19 83 19 28 6 96 19 100 20 5 1 88 11
175 21 63 6 345 6 400 -1 110 -14 240 -38 279 -51 l40 -15 76 74 c86 85 287
220 375 254 l60 22 -1357 0 -1358 1 1 -837z"/>
<path d="M2802 4387 c49 -19 119 -183 169 -393 l23 -102 71 -12 c64 -11 160
-35 305 -75 55 -15 156 -53 175 -66 6 -3 51 -28 100 -53 50 -26 104 -56 120
-66 17 -11 37 -23 45 -27 89 -42 359 -276 449 -388 76 -96 121 -154 121 -160
0 -2 13 -23 29 -47 16 -24 48 -81 70 -128 23 -47 47 -94 53 -104 57 -104 95
-316 117 -656 4 -63 8 426 9 1088 l2 1202 -942 -1 c-682 -1 -935 -4 -916 -12z"/>
<path d="M445 4274 c-70 -169 -112 -403 -122 -684 l-6 -175 -50 -88 c-54 -97
-115 -265 -143 -397 -26 -121 -27 -449 -1 -570 55 -257 164 -462 345 -646 81
-82 74 -69 152 -279 28 -76 39 -200 50 -550 6 -176 15 -354 20 -395 17 -128
69 -207 173 -262 36 -20 57 -23 147 -23 97 0 109 2 152 28 94 55 146 153 179
337 25 138 39 200 48 200 3 0 55 -11 116 -25 60 -13 153 -27 208 -31 94 -7
101 -9 140 -42 64 -53 112 -72 190 -72 l67 0 0 -54 c0 -30 5 -89 11 -132 24
-173 83 -257 209 -295 133 -40 258 -13 342 74 83 85 122 199 174 515 l29 173
135 65 c109 53 149 68 210 75 41 6 103 16 138 24 107 25 103 30 80 -77 -25
-120 -28 -233 -6 -274 9 -17 35 -47 58 -68 l42 -37 -36 -68 c-83 -159 -82
-265 6 -347 69 -66 147 -91 235 -75 137 25 282 131 391 285 220 309 349 647
417 1086 26 164 31 568 11 757 -34 308 -70 436 -182 653 -233 448 -784 826
-1339 918 l-110 19 -8 39 c-27 125 -81 303 -113 373 -42 93 -50 96 -137 59
-88 -36 -207 -122 -322 -230 l-109 -104 -91 23 c-288 74 -668 71 -993 -8 -133
-33 -124 -34 -181 20 -145 134 -261 218 -372 270 -125 60 -135 61 -154 15z
m1130 -1012 c114 -181 332 -393 536 -521 56 -35 68 -47 73 -76 12 -62 83 -95
133 -60 20 14 28 12 96 -15 91 -36 251 -76 367 -90 93 -11 331 -14 402 -4 45
6 46 7 51 51 2 24 7 47 11 50 3 4 57 -6 119 -21 197 -47 308 -65 477 -78 146
-10 178 -10 281 6 64 10 147 28 185 41 38 13 70 22 72 20 10 -9 22 -138 22
-233 0 -183 -31 -342 -100 -512 -34 -83 -40 -111 -50 -225 -34 -405 -159 -732
-348 -907 -129 -119 -259 -139 -373 -56 -90 65 -98 134 -48 388 29 153 43 369
25 399 -17 27 -25 -6 -24 -102 0 -56 -3 -128 -7 -159 -7 -57 -8 -58 -49 -69
-62 -17 -186 -38 -225 -39 -21 0 -86 -24 -163 -60 -70 -33 -132 -60 -138 -60
-14 0 -12 24 9 115 12 50 16 84 10 89 -6 6 -12 6 -18 0 -11 -12 -42 -164 -91
-451 -53 -312 -82 -394 -167 -476 -117 -115 -355 -96 -436 34 -46 75 -57 136
-67 374 -9 219 -15 274 -32 308 -13 26 -31 9 -23 -22 4 -14 10 -56 14 -92 l7
-66 -86 -6 c-155 -11 -506 25 -602 62 -27 10 -27 10 -12 48 9 21 27 56 40 79
22 37 23 54 3 54 -4 0 -25 -37 -47 -82 -41 -85 -60 -154 -87 -315 -24 -145
-58 -223 -122 -285 -48 -47 -108 -68 -193 -68 -134 0 -242 86 -270 212 -6 29
-15 193 -20 363 -15 463 -27 566 -85 704 -19 45 -31 81 -27 81 4 0 41 -23 82
-50 434 -291 1045 -367 1575 -195 203 66 560 274 526 308 -7 7 -33 -8 -83 -45
-286 -215 -633 -321 -1053 -320 -252 0 -478 45 -697 137 -215 90 -447 269
-578 445 -116 156 -212 401 -235 601 l-6 56 103 6 c134 8 288 43 425 98 l53
21 29 -31 c38 -41 90 -43 128 -5 22 22 25 31 20 69 l-6 44 67 37 c242 135 431
300 538 469 26 41 50 75 53 75 3 0 19 -21 36 -48z m535 -2591 c0 -38 -10 -44
-74 -43 -53 0 -134 30 -157 58 -10 12 6 14 110 14 l121 0 0 -29z"/>
<path d="M1476 2451 c-4 -6 -4 -40 0 -75 6 -60 5 -69 -20 -106 -29 -44 -83
-76 -145 -86 -27 -4 -41 -12 -41 -22 0 -20 75 -10 129 17 37 19 84 66 94 93 3
8 21 -2 50 -31 33 -32 65 -51 114 -67 38 -13 72 -19 77 -14 14 14 -2 27 -41
33 -52 9 -125 57 -152 100 -12 20 -28 63 -34 96 -13 63 -21 79 -31 62z"/>
<path d="M1 1283 l-1 -1283 1823 1 c1002 1 1809 5 1792 9 -29 7 -74 27 -125
55 -39 21 -76 65 -109 129 -26 48 -31 70 -31 125 0 67 28 172 57 218 13 20 12
25 -12 57 -47 62 -65 124 -61 218 2 45 7 96 11 112 7 26 6 28 -10 22 -10 -3
-50 -9 -89 -13 -48 -4 -89 -15 -126 -34 -30 -15 -81 -37 -112 -49 -61 -22 -59
-19 -74 -120 -3 -25 -8 -52 -9 -60 -2 -8 -10 -60 -20 -115 -50 -297 -127 -435
-282 -507 -120 -57 -275 -50 -402 17 -95 50 -169 195 -189 373 l-7 66 -35 3
c-45 5 -152 54 -186 86 -21 20 -43 26 -122 36 -108 12 -141 18 -191 31 -19 5
-36 8 -38 7 -1 -2 -9 -46 -18 -97 -30 -177 -69 -265 -154 -350 -57 -57 -99
-84 -148 -94 -16 -4 -39 -9 -53 -12 -46 -10 -143 -5 -194 10 -97 29 -192 109
-235 201 -47 101 -52 142 -67 605 -3 102 -7 201 -9 220 -2 19 -7 65 -10 102
-5 66 -18 115 -72 261 -25 65 -40 89 -99 150 -211 216 -342 492 -379 796 -11
91 -13 -76 -14 -1176z"/>
<path d="M4650 1693 c0 -79 -31 -344 -51 -438 -27 -129 -61 -246 -104 -355
-20 -52 -41 -108 -47 -125 -17 -46 -138 -278 -154 -296 -8 -8 -14 -19 -14 -23
0 -14 -133 -201 -174 -245 -83 -88 -212 -167 -319 -196 -47 -12 -6 -14 411
-14 l462 -1 0 870 c0 479 -2 870 -5 870 -3 0 -5 -21 -5 -47z"/>
</g>
</svg>
